<?xml version="1.0" encoding="utf-8" standalone="no"?>
<!DOCTYPE svg PUBLIC "-//W3C//DTD SVG 1.1//EN"
  "http://www.w3.org/Graphics/SVG/1.1/DTD/svg11.dtd">
<!-- Created with matplotlib (https://matplotlib.org/) -->
<svg height="576pt" version="1.1" viewBox="0 0 576 576" width="576pt" xmlns="http://www.w3.org/2000/svg" xmlns:xlink="http://www.w3.org/1999/xlink">
 <defs>
  <style type="text/css">
*{stroke-linecap:butt;stroke-linejoin:round;}
  </style>
 </defs>
 <g id="figure_1">
  <g id="patch_1">
   <path d="M 0 576 
L 576 576 
L 576 0 
L 0 0 
z
" style="fill:none;"/>
  </g>
  <g id="axes_1">
   <g id="line2d_1">
    <path clip-path="url(#pc23de36fee)" d="M 295.2 512.64 
L 295.2 69.12 
" style="fill:none;stroke:#000000;stroke-linecap:square;stroke-width:2;"/>
   </g>
   <g id="line2d_2">
    <path clip-path="url(#pc23de36fee)" d="M 72 290.88 
L 518.4 290.88 
" style="fill:none;stroke:#000000;stroke-linecap:square;stroke-width:2;"/>
   </g>
   <g id="line2d_3">
    <path clip-path="url(#pc23de36fee)" d="M 71.256 332.07869 
L 72.744 334.480143 
L 73.488 335.415569 
L 74.232 336.12381 
L 77.208 338.39652 
L 78.696 340.309361 
L 81.672 344.724821 
L 83.16 346.366597 
L 85.392 348.607388 
L 89.112 352.913019 
L 89.856 353.359448 
L 90.6 353.524338 
L 91.344 353.422943 
L 92.832 352.735907 
L 93.576 352.387583 
L 94.32 352.194838 
L 95.064 352.233429 
L 95.808 352.517682 
L 98.04 354.028108 
L 98.784 354.286569 
L 99.528 354.202955 
L 100.272 353.718197 
L 101.016 352.846462 
L 102.504 350.325162 
L 103.992 347.713218 
L 104.736 346.681458 
L 105.48 345.906 
L 106.224 345.37371 
L 107.712 344.809537 
L 109.944 344.384824 
L 110.688 344.327815 
L 111.432 344.396037 
L 112.176 344.663692 
L 112.92 345.197595 
L 113.664 346.04125 
L 114.408 347.203299 
L 115.896 350.313093 
L 118.128 355.370745 
L 118.872 356.601856 
L 119.616 357.379767 
L 120.36 357.611462 
L 121.104 357.253278 
L 121.848 356.321252 
L 122.592 354.895078 
L 124.08 351.163173 
L 125.568 347.594589 
L 126.312 346.365798 
L 127.056 345.691987 
L 127.8 345.624604 
L 128.544 346.133963 
L 129.288 347.113566 
L 132.264 352.079328 
L 133.008 352.709922 
L 133.752 352.926183 
L 134.496 352.779591 
L 136.728 351.592328 
L 137.472 351.506382 
L 138.216 351.76591 
L 138.96 352.370704 
L 141.192 355.041354 
L 141.936 355.601258 
L 142.68 355.7271 
L 143.424 355.361302 
L 144.168 354.542437 
L 145.656 352.108723 
L 146.4 350.883582 
L 147.144 349.902727 
L 147.888 349.291018 
L 148.632 349.097604 
L 149.376 349.294903 
L 150.12 349.793698 
L 152.352 351.839645 
L 153.096 352.343231 
L 153.84 352.660574 
L 154.584 352.787569 
L 155.328 352.74345 
L 156.816 352.261246 
L 158.304 351.44129 
L 160.536 350.160884 
L 161.28 349.952568 
L 162.024 349.987139 
L 162.768 350.338341 
L 163.512 351.049129 
L 164.256 352.112223 
L 165.744 354.948495 
L 166.488 356.399256 
L 167.232 357.597884 
L 167.976 358.346658 
L 168.72 358.503517 
L 169.464 358.018442 
L 170.208 356.95505 
L 172.44 352.459752 
L 173.184 351.48957 
L 173.928 351.18818 
L 174.672 351.637419 
L 175.416 352.768665 
L 177.648 357.704525 
L 178.392 358.769891 
L 179.136 359.11791 
L 179.88 358.685468 
L 180.624 357.571865 
L 182.856 352.943835 
L 183.6 352.087613 
L 184.344 351.989248 
L 185.088 352.706609 
L 185.832 354.14739 
L 188.808 361.834777 
L 189.552 362.783256 
L 190.296 362.992958 
L 191.04 362.486704 
L 191.784 361.397267 
L 194.76 355.782618 
L 195.504 355.12083 
L 196.248 354.966184 
L 196.992 355.28192 
L 197.736 355.963093 
L 199.968 358.634402 
L 200.712 359.211813 
L 201.456 359.433871 
L 202.2 359.237321 
L 202.944 358.598817 
L 203.688 357.533948 
L 204.432 356.096813 
L 205.92 352.515086 
L 207.408 349.015824 
L 208.152 347.754437 
L 208.896 347.044148 
L 209.64 346.995575 
L 210.384 347.642354 
L 211.128 348.927172 
L 212.616 352.752003 
L 214.104 356.642167 
L 214.848 358.015925 
L 215.592 358.801069 
L 216.336 358.955075 
L 217.08 358.532343 
L 217.824 357.671318 
L 220.056 354.547866 
L 220.8 354.039355 
L 221.544 354.063302 
L 222.288 354.68423 
L 223.032 355.891837 
L 223.776 357.604953 
L 225.264 361.95065 
L 226.752 366.293243 
L 227.496 368.054289 
L 228.24 369.421913 
L 228.984 370.397881 
L 229.728 371.061551 
L 231.216 372.077077 
L 231.96 372.81646 
L 232.704 373.9511 
L 233.448 375.598092 
L 234.192 377.793089 
L 235.68 383.511789 
L 237.168 389.7264 
L 237.912 392.413969 
L 238.656 394.54117 
L 239.4 395.99222 
L 240.144 396.759021 
L 240.888 396.948311 
L 243.12 396.430912 
L 243.864 396.834866 
L 244.608 397.886466 
L 245.352 399.640319 
L 246.096 402.013014 
L 248.328 410.373605 
L 249.072 412.548084 
L 249.816 414.0104 
L 250.56 414.682894 
L 251.304 414.624363 
L 252.048 414.010677 
L 254.28 411.366373 
L 255.024 410.932359 
L 255.768 410.868862 
L 256.512 411.10554 
L 258 411.809669 
L 258.744 411.863901 
L 259.488 411.472337 
L 260.232 410.516858 
L 260.976 408.950731 
L 261.72 406.796137 
L 263.208 401.067974 
L 267.672 381.312882 
L 269.16 376.522261 
L 269.904 374.695534 
L 270.648 373.219529 
L 272.136 370.960518 
L 272.88 369.884638 
L 273.624 368.598038 
L 274.368 366.913282 
L 275.112 364.680155 
L 275.856 361.820292 
L 277.344 354.41807 
L 279.576 342.490097 
L 280.32 339.538208 
L 281.064 337.504453 
L 281.808 336.441892 
L 282.552 336.235172 
L 283.296 336.611813 
L 284.04 337.185812 
L 284.784 337.52561 
L 285.528 337.232393 
L 286.272 336.011951 
L 287.016 333.724732 
L 287.76 330.403868 
L 289.248 321.5273 
L 291.48 307.384362 
L 292.968 299.948799 
L 296.688 284.068696 
L 298.176 275.808033 
L 300.408 262.682408 
L 301.896 255.640509 
L 302.64 252.977502 
L 303.384 250.851429 
L 304.872 247.629715 
L 306.36 244.430723 
L 307.104 242.368115 
L 307.848 239.848134 
L 309.336 233.452072 
L 312.312 219.053817 
L 313.056 216.311627 
L 313.8 214.299577 
L 314.544 213.133693 
L 315.288 212.855493 
L 316.032 213.419041 
L 316.776 214.685735 
L 319.752 221.436943 
L 320.496 221.980105 
L 321.24 221.573124 
L 321.984 220.141721 
L 322.728 217.741134 
L 323.472 214.547898 
L 326.448 199.826062 
L 327.192 197.169817 
L 327.936 195.321926 
L 328.68 194.314683 
L 329.424 194.078364 
L 330.168 194.453413 
L 332.4 196.7399 
L 333.144 196.929025 
L 333.888 196.386901 
L 334.632 194.926345 
L 335.376 192.447463 
L 336.12 188.953744 
L 336.864 184.557739 
L 338.352 173.998786 
L 339.84 163.272977 
L 340.584 158.712654 
L 341.328 155.066807 
L 342.072 152.516064 
L 342.816 151.139376 
L 343.56 150.91433 
L 344.304 151.730332 
L 345.048 153.412173 
L 345.792 155.750099 
L 347.28 161.570354 
L 354.72 193.10239 
L 355.464 195.525589 
L 356.208 197.540241 
L 357.696 200.552018 
L 359.184 203.330579 
L 359.928 205.213718 
L 360.672 207.705879 
L 361.416 210.925292 
L 362.16 214.886968 
L 363.648 224.596402 
L 366.624 245.481618 
L 368.112 254.326389 
L 371.832 273.786039 
L 376.296 297.200917 
L 378.528 307.322801 
L 380.016 313.24991 
L 381.504 318.034111 
L 382.248 319.779289 
L 382.992 321.009371 
L 383.736 321.730795 
L 384.48 322.030691 
L 385.968 322.119556 
L 386.712 322.41927 
L 387.456 323.233976 
L 388.2 324.74843 
L 388.944 327.034136 
L 389.688 330.025541 
L 392.664 343.847984 
L 393.408 346.171856 
L 394.152 347.610592 
L 394.896 348.165205 
L 395.64 347.968931 
L 396.384 347.254096 
L 397.872 345.394273 
L 398.616 344.75499 
L 399.36 344.528047 
L 400.104 344.757975 
L 400.848 345.395952 
L 402.336 347.36677 
L 403.08 348.362193 
L 403.824 349.155405 
L 404.568 349.641017 
L 405.312 349.773237 
L 406.056 349.568927 
L 406.8 349.10062 
L 409.032 347.322253 
L 409.776 347.022763 
L 410.52 347.01741 
L 411.264 347.330904 
L 412.008 347.941314 
L 413.496 349.777375 
L 414.984 351.769685 
L 415.728 352.562381 
L 416.472 353.098664 
L 417.216 353.310682 
L 417.96 353.154674 
L 418.704 352.616382 
L 419.448 351.716836 
L 420.936 349.11914 
L 422.424 346.30848 
L 423.168 345.228523 
L 423.912 344.574964 
L 424.656 344.461871 
L 425.4 344.946765 
L 426.144 346.02166 
L 426.888 347.614563 
L 428.376 351.820189 
L 429.864 356.265319 
L 430.608 358.167873 
L 431.352 359.681773 
L 432.096 360.716332 
L 432.84 361.218635 
L 433.584 361.176712 
L 434.328 360.621932 
L 435.072 359.629354 
L 436.56 356.82189 
L 438.048 353.946956 
L 438.792 352.851347 
L 439.536 352.113251 
L 440.28 351.762887 
L 441.024 351.773383 
L 441.768 352.070534 
L 443.256 353.110463 
L 444.744 354.149445 
L 447.72 355.975622 
L 448.464 356.697351 
L 449.952 358.665245 
L 451.44 360.888226 
L 452.184 361.792758 
L 452.928 362.386452 
L 453.672 362.582721 
L 454.416 362.360705 
L 455.16 361.779999 
L 456.648 360.164146 
L 457.392 359.564652 
L 458.136 359.403417 
L 458.88 359.847197 
L 459.624 360.972735 
L 460.368 362.748337 
L 461.856 367.624191 
L 463.344 372.695541 
L 464.088 374.761187 
L 464.832 376.361266 
L 465.576 377.498428 
L 466.32 378.253469 
L 467.808 379.115085 
L 470.04 379.972346 
L 470.784 380.060527 
L 471.528 379.889582 
L 472.272 379.37013 
L 473.016 378.46481 
L 473.76 377.20811 
L 475.992 372.666604 
L 476.736 371.500191 
L 477.48 370.770519 
L 478.224 370.549969 
L 478.968 370.834638 
L 479.712 371.550943 
L 481.2 373.761843 
L 482.688 376.09611 
L 484.176 377.895593 
L 485.664 379.200442 
L 488.64 381.428731 
L 489.384 381.786748 
L 490.128 381.921928 
L 490.872 381.777898 
L 491.616 381.348638 
L 494.592 378.804315 
L 495.336 378.759646 
L 496.08 379.197369 
L 496.824 380.111591 
L 498.312 382.892884 
L 499.8 385.607595 
L 500.544 386.45021 
L 501.288 386.804306 
L 502.032 386.67169 
L 502.776 386.139013 
L 505.008 383.727459 
L 505.752 383.185328 
L 506.496 382.943027 
L 507.24 383.01329 
L 507.984 383.352911 
L 509.472 384.486705 
L 510.96 385.564923 
L 511.704 385.902409 
L 512.448 386.075306 
L 513.936 386.044415 
L 515.424 385.922095 
L 516.168 385.997073 
L 516.912 386.228808 
L 517.656 386.636698 
L 519.144 387.928991 
L 519.144 387.928991 
" style="fill:none;stroke:#000000;stroke-linecap:square;stroke-width:4.5;"/>
   </g>
   <g id="line2d_4">
    <path clip-path="url(#pc23de36fee)" d="M 160.594274 -1 
L 164.256 47.304715 
L 167.976 92.911869 
L 170.952 126.953796 
L 173.928 158.879763 
L 176.904 188.741744 
L 179.88 216.59171 
L 182.856 242.481634 
L 185.832 266.463489 
L 188.808 288.589248 
L 191.784 308.910884 
L 194.76 327.480368 
L 197.736 344.349673 
L 199.968 355.917175 
L 202.2 366.579487 
L 204.432 376.358535 
L 206.664 385.276245 
L 208.896 393.354543 
L 211.128 400.615355 
L 213.36 407.080607 
L 215.592 412.772225 
L 217.824 417.712135 
L 220.056 421.922262 
L 221.544 424.334407 
L 223.032 426.438446 
L 224.52 428.240874 
L 226.008 429.74819 
L 227.496 430.966889 
L 228.984 431.903469 
L 230.472 432.564425 
L 231.96 432.956254 
L 233.448 433.085454 
L 234.936 432.958519 
L 236.424 432.581948 
L 237.912 431.962236 
L 239.4 431.10588 
L 240.888 430.019377 
L 242.376 428.709224 
L 243.864 427.181916 
L 246.096 424.498002 
L 248.328 421.362034 
L 250.56 417.795939 
L 252.792 413.821642 
L 255.024 409.46107 
L 258 403.083997 
L 260.976 396.111163 
L 263.952 388.594543 
L 267.672 378.513243 
L 271.392 367.764991 
L 275.856 354.129638 
L 281.064 337.426632 
L 287.76 315.121943 
L 295.2 289.91322 
L 295.2 289.91322 
" style="fill:none;stroke:#ffffff;stroke-dasharray:11.1,4.8;stroke-dashoffset:0;stroke-width:3;"/>
   </g>
   <g id="line2d_5">
    <path clip-path="url(#pc23de36fee)" d="M 295.944 287.397476 
L 303.384 262.603965 
L 308.592 245.932122 
L 313.056 232.332865 
L 316.776 221.621311 
L 320.496 211.582724 
L 323.472 204.104606 
L 326.448 197.174126 
L 329.424 190.843256 
L 331.656 186.519862 
L 333.888 182.58491 
L 336.12 179.060326 
L 338.352 175.968034 
L 340.584 173.329962 
L 342.072 171.834419 
L 343.56 170.556993 
L 345.048 169.504179 
L 346.536 168.682476 
L 348.024 168.098379 
L 349.512 167.758385 
L 351 167.668991 
L 352.488 167.836693 
L 353.976 168.267987 
L 355.464 168.969371 
L 356.952 169.947341 
L 358.44 171.208393 
L 359.928 172.759024 
L 361.416 174.605731 
L 362.904 176.75501 
L 364.392 179.213357 
L 365.88 181.98727 
L 368.112 186.754036 
L 370.344 192.267368 
L 372.576 198.54919 
L 374.808 205.62143 
L 377.04 213.506013 
L 379.272 222.224865 
L 381.504 231.799912 
L 383.736 242.25308 
L 385.968 253.606295 
L 388.2 265.881483 
L 391.176 283.720477 
L 394.152 303.289486 
L 397.128 324.640483 
L 400.104 347.82544 
L 403.08 372.89633 
L 406.056 399.905126 
L 409.032 428.9038 
L 412.008 459.944325 
L 414.984 493.078673 
L 417.96 528.358818 
L 420.936 565.836731 
L 421.788977 577 
L 421.788977 577 
" style="fill:none;stroke:#ffffff;stroke-dasharray:11.1,4.8;stroke-dashoffset:0;stroke-width:3;"/>
   </g>
   <g id="line2d_6">
    <path clip-path="url(#pc23de36fee)" d="M 228.984 431.903469 
L 230.472 432.564425 
L 231.96 432.956254 
L 233.448 433.085454 
L 234.936 432.958519 
L 236.424 432.581948 
L 237.912 431.962236 
L 239.4 431.10588 
L 240.888 430.019377 
L 242.376 428.709224 
L 243.864 427.181916 
L 246.096 424.498002 
L 248.328 421.362034 
L 250.56 417.795939 
L 252.792 413.821642 
L 255.024 409.46107 
L 258 403.083997 
L 260.976 396.111163 
L 263.952 388.594543 
L 267.672 378.513243 
L 271.392 367.764991 
L 275.856 354.129638 
L 281.064 337.426632 
L 287.76 315.121943 
L 295.2 289.91322 
L 295.2 289.91322 
" style="fill:none;stroke:#ff0000;stroke-linecap:square;stroke-width:5.5;"/>
   </g>
   <g id="line2d_7">
    <path clip-path="url(#pc23de36fee)" d="M 295.944 287.397476 
L 303.384 262.603965 
L 308.592 245.932122 
L 313.056 232.332865 
L 316.776 221.621311 
L 320.496 211.582724 
L 323.472 204.104606 
L 326.448 197.174126 
L 329.424 190.843256 
L 331.656 186.519862 
L 333.888 182.58491 
L 336.12 179.060326 
L 338.352 175.968034 
L 340.584 173.329962 
L 342.072 171.834419 
L 343.56 170.556993 
L 345.048 169.504179 
L 346.536 168.682476 
L 348.024 168.098379 
L 349.512 167.758385 
L 351 167.668991 
L 352.488 167.836693 
L 353.976 168.267987 
L 355.464 168.969371 
L 356.952 169.947341 
L 358.44 171.208393 
L 359.928 172.759024 
L 361.416 174.605731 
L 361.416 174.605731 
" style="fill:none;stroke:#ff0000;stroke-linecap:square;stroke-width:5.5;"/>
   </g>
  </g>
 </g>
 <defs>
  <clipPath id="pc23de36fee">
   <rect height="443.52" width="446.4" x="72" y="69.12"/>
  </clipPath>
 </defs>
</svg>
